<svg xmlns="http://www.w3.org/2000/svg" xmlns:xlink="http://www.w3.org/1999/xlink" width="500" zoomAndPan="magnify" viewBox="0 0 375 374.999991" height="500" preserveAspectRatio="xMidYMid meet" version="1.0"><defs><g/></defs><g fill="#ffffff" fill-opacity="1"><g transform="translate(-12.748965, 353.573418)"><g><path d="M 91.015625 -364.066406 C 50.96875 -364.066406 18.203125 -331.300781 18.203125 -291.253906 L 18.203125 0 L 91.015625 0 L 91.015625 -145.625 L 309.457031 -145.625 L 309.457031 0 L 382.269531 0 L 382.269531 -291.253906 C 382.269531 -331.300781 349.503906 -364.066406 309.457031 -364.066406 Z M 91.015625 -291.253906 L 309.457031 -291.253906 L 309.457031 -218.441406 L 91.015625 -218.441406 Z M 91.015625 -291.253906 "/></g></g></g><g fill="#ffffff" fill-opacity="1"><g transform="translate(132.848873, 333.02442)"><g><path d="M 104.328125 -99.359375 L 24.839844 -99.359375 C 13.910156 -99.359375 4.96875 -90.417969 4.96875 -79.488281 L 4.96875 -19.871094 C 4.96875 -8.941406 13.910156 0 24.839844 0 L 84.457031 0 C 95.507812 0 104.328125 -9.066406 104.328125 -19.871094 L 104.328125 -59.617188 L 44.710938 -59.617188 L 44.710938 -39.742188 L 84.457031 -39.742188 L 84.457031 -19.871094 L 24.839844 -19.871094 L 24.839844 -79.488281 L 104.328125 -79.488281 Z M 104.328125 -99.359375 "/></g></g></g></svg>